# xmcd CD database file
# Copyright (C) 1993-1998 Ti Kan
#
# Track frame offsets:
#	187
#	10870
#	22630
#	35280
#	44082
#	56200
#	68440
#	78130
#	86755
#	97657
#
# Disc length: 1475 seconds
#
# Revision: 1
# Processed by: cddbd v1.4b41PL1 Copyright (c) Steve Scherf et al.
# Submitted via: CDValet v3.31 - Copyright (c) 1997 Greg Leichner
#
DISCID=6705c10a
DTITLE=Al Dean and the All Stars - Kick'N
DYEAR=1900
DGENRE=
TTITLE0=Cotton Eyed Joe (instrumental)
TTITLE1=A Jole Blon (waltz)
TTITLE2=Rose Valley Polka
TTITLE3=Foggy Mountain Breakdown
TTITLE4=Blue Sky Waltz
TTITLE5=Jalisco (polka)
TTITLE6=South Texas Waltz
TTITLE7=Sweetheart Schottische
TTITLE8=Put Your Little Foot
TTITLE9=Model "A" Polka
EXTD=
EXTT0=
EXTT1=
EXTT2=
EXTT3=
EXTT4=
EXTT5=
EXTT6=
EXTT7=
EXTT8=
EXTT9=
PLAYORDER=
